<svg width="14" height="11" viewBox="0 0 14 11" fill="none" xmlns="http://www.w3.org/2000/svg">
<path d="M13.9896 1.23331C13.9896 1.21685 14.0006 1.20084 13.9999 1.18457L9.72754 5.4188L13.9948 9.51776C13.9972 9.48849 13.9896 9.45896 13.9896 9.42905V1.23331Z" fill="#44D5AC"/>
<path d="M9.0757 6.06885L7.33161 7.79482C7.24336 7.88216 7.12937 7.92595 7.01533 7.92595C6.90365 7.92595 6.79198 7.88404 6.70433 7.80001L4.96499 6.13291L0.669922 10.3912C0.774358 10.4298 0.886457 10.4597 1.00385 10.4597H13.0269C13.2012 10.4597 13.3647 10.4051 13.5068 10.3237L9.0757 6.06885Z" fill="#44D5AC"/>
<path d="M7.01029 6.8113L13.5304 0.351033C13.3828 0.260756 13.211 0.200195 13.0268 0.200195H1.0038C0.763967 0.200195 0.544207 0.295979 0.373047 0.442062L7.01029 6.8113Z" fill="#44D5AC"/>
<path d="M0 1.39062V9.4289C0 9.52118 0.0206195 9.61014 0.043003 9.69516L4.28479 5.49372L0 1.39062Z" fill="#44D5AC"/>
</svg>
