<svg width="1064" height="643" viewBox="0 0 1064 643" fill="none" xmlns="http://www.w3.org/2000/svg">
<g clip-path="url(#clip0_5_34)">
<path d="M424.083 108.904C325.101 78.5998 297.882 -12.7702 193.814 36.8446C78.0756 83.5063 67.4031 47.5764 26.1035 150.734C-24.4548 277.041 3.4078 443.847 125.416 543.361C255.334 649.303 444.102 639.842 567.625 546.884C677.922 463.837 746.216 306.616 698.01 187.208C692.77 174.29 663.25 104.993 593.083 68.9838C535.08 39.241 502.502 132.935 424.083 108.904Z" fill="#CBFFF0"/>
<path d="M547.408 434.284C606.404 519.346 571.238 607.961 683.688 633.394C803.476 668.368 831.49 529.97 927.771 474.5C1045.65 406.576 1085.13 431.533 1050.88 277.859C1014.4 114.239 860.265 4.84736 705.71 1.42025C567.677 -1.60601 416.733 79.6246 380.701 203.252C376.822 216.642 357.123 289.343 389.954 361.053C417.108 420.311 500.683 366.877 547.408 434.284Z" fill="#CDEBFF"/>
</g>
<defs>
<clipPath id="clip0_5_34">
<rect width="1064" height="643" fill="white"/>
</clipPath>
</defs>
</svg>
